<?xml version="1.0" standalone="no"?>
<!DOCTYPE svg PUBLIC "-//W3C//DTD SVG 20010904//EN"
 "http://www.w3.org/TR/2001/REC-SVG-20010904/DTD/svg10.dtd">
<svg version="1.0" xmlns="http://www.w3.org/2000/svg"
 width="700.000000pt" height="700.000000pt" viewBox="0 0 700.000000 700.000000"
 preserveAspectRatio="xMidYMid meet">
<metadata>
Created by potrace 1.14, written by Peter Selinger 2001-2017
</metadata>
<g transform="translate(0.000000,700.000000) scale(0.100000,-0.100000)"
fill="#000000" stroke="none">
<path d="M3220 6994 c-182 -20 -243 -29 -360 -50 -786 -142 -1524 -572 -2041
-1189 -436 -522 -692 -1103 -796 -1810 -25 -173 -25 -717 0 -890 70 -477 202
-877 416 -1258 281 -503 667 -917 1146 -1229 449 -293 903 -461 1470 -545 152
-22 705 -26 855 -5 823 113 1504 445 2065 1007 493 492 830 1119 959 1783 55
283 61 346 61 692 0 346 -6 409 -61 692 -148 762 -575 1482 -1179 1989 -517
433 -1119 699 -1800 795 -114 15 -640 29 -735 18z m2678 -2472 l-288 -2 0 -23
c0 -40 -50 -821 -56 -864 l-5 -43 -729 0 -729 0 -5 43 c-6 43 -56 825 -56 865
l0 22 -287 0 -288 0 685 685 685 686 680 -683 680 -683 -287 -3z m-372 -1389
c-3 -60 -9 -141 -13 -180 l-6 -73 -687 0 -687 0 -6 73 c-4 39 -10 120 -13 180
l-7 107 713 0 713 0 -7 -107z m-40 -685 c-4 -51 -9 -128 -13 -170 l-6 -78
-647 0 -648 0 -6 83 c-3 45 -8 121 -12 170 l-6 87 672 0 673 0 -7 -92z"/>
</g>
</svg>
